<svg width="29" height="24" viewBox="0 0 29 24" fill="none" xmlns="http://www.w3.org/2000/svg">
<path d="M26.1 0.5H2.9C1.305 0.5 0 1.79375 0 3.375V20.625C0 22.2062 1.305 23.5 2.9 23.5H26.1C27.695 23.5 29 22.2062 29 20.625V3.375C29 1.79375 27.695 0.5 26.1 0.5ZM25.52 6.60938L16.037 12.4888C15.0945 13.0781 13.9055 13.0781 12.963 12.4888L3.48 6.60938C3.3346 6.52846 3.20728 6.41914 3.10574 6.28803C3.00419 6.15692 2.93054 6.00674 2.88923 5.8466C2.84793 5.68645 2.83983 5.51966 2.86543 5.35632C2.89102 5.19298 2.94979 5.03648 3.03816 4.89631C3.12653 4.75613 3.24267 4.63519 3.37955 4.54081C3.51644 4.44642 3.67121 4.38055 3.83452 4.34718C3.99782 4.31381 4.16626 4.31364 4.32963 4.34668C4.49301 4.37971 4.64792 4.44527 4.785 4.53937L14.5 10.5625L24.215 4.53937C24.3521 4.44527 24.507 4.37971 24.6704 4.34668C24.8337 4.31364 25.0022 4.31381 25.1655 4.34718C25.3288 4.38055 25.4836 4.44642 25.6204 4.54081C25.7573 4.63519 25.8735 4.75613 25.9618 4.89631C26.0502 5.03648 26.109 5.19298 26.1346 5.35632C26.1602 5.51966 26.1521 5.68645 26.1108 5.8466C26.0695 6.00674 25.9958 6.15692 25.8943 6.28803C25.7927 6.41914 25.6654 6.52846 25.52 6.60938Z" fill="#506AF7"/>
</svg>
