<svg width="24" height="24" viewBox="0 0 24 24" fill="none" xmlns="http://www.w3.org/2000/svg">
<path d="M21.0375 16.075L17.8626 15.7125C17.4892 15.6686 17.1108 15.7099 16.7557 15.8333C16.4007 15.9567 16.0782 16.159 15.8126 16.425L13.5126 18.725C9.96404 16.9202 7.07978 14.036 5.27505 10.4875L7.58755 8.17495C8.12505 7.63745 8.38755 6.88745 8.30005 6.12495L7.93755 2.97495C7.86668 2.36517 7.57404 1.80275 7.11535 1.39476C6.65665 0.986776 6.06394 0.761723 5.45005 0.762453H3.28755C1.87505 0.762453 0.700051 1.93745 0.787551 3.34995C1.45005 14.025 9.98755 22.55 20.6501 23.2125C22.0626 23.3 23.2375 22.125 23.2375 20.7125V18.55C23.25 17.2875 22.3 16.225 21.0375 16.075Z" fill="black"/>
</svg>
